<svg width="20" height="20" viewBox="0 0 20 20" fill="none" xmlns="http://www.w3.org/2000/svg">
<path d="M13 16.2774C13.5933 15.9441 14 14.5 14.7798 14M8.5 1.50002C9.5 2.50002 11.5 3.00002 12.5 2M2 13.5C2.83333 13.3333 4.46435 13 5 14.6069C5.53565 16.2139 5.16667 16.6667 5 17M19 10C19 5.02944 14.9706 1 10 1C5.02944 1 1 5.02944 1 10C1 14.9706 5.02944 19 10 19C14.9706 19 19 14.9706 19 10ZM5.918 6.19133L5.45998 7.26006C4.93948 8.47455 5.5502 9.87652 6.79401 10.3224C7.5435 10.5912 8.1 11.2294 8.26419 12.0084L8.9584 15.3026C8.98588 15.433 9.03798 15.557 9.11191 15.6679C9.53097 16.2965 10.4572 16.2887 10.8658 15.6533L13.9118 10.915C14.2918 10.3238 14.4523 9.618 14.3651 8.92063L14.2969 8.37486C14.1232 6.98559 13.0117 5.90117 11.6185 5.76185L9.54413 5.55441C9.19225 5.51923 8.86316 5.36316 8.6131 5.1131C8.23295 4.73295 7.68087 4.57978 7.15931 4.71017L6.76819 4.80795C6.31672 4.92082 6 5.32647 6 5.79183C6 5.92918 5.9721 6.06509 5.918 6.19133Z" stroke="#363538" stroke-width="1.5" stroke-linecap="round" stroke-linejoin="round"/>
</svg>
