<svg width="17" height="18" viewBox="0 0 17 18" fill="none" xmlns="http://www.w3.org/2000/svg">
<path d="M4.27891 12.7279C7.3723 15.8213 11.4915 16.961 14.5262 15.8454C15.8755 15.3494 15.9474 13.6502 15.0261 12.5466L14.2562 11.6244C13.6236 10.8667 12.477 10.8152 11.779 11.5132C11.2845 12.0077 10.5349 12.1451 9.91773 11.8163C9.05482 11.3566 7.85228 10.6444 7.10734 9.89949C6.3624 9.15454 5.65024 7.95201 5.19057 7.0891C4.86177 6.47189 4.99913 5.7223 5.49363 5.2278C6.19163 4.5298 6.14014 3.38326 5.38238 2.75063L4.4602 1.98073C3.35661 1.05939 1.65739 1.13128 1.16138 2.48064C0.0458558 5.51531 1.18553 9.63453 4.27891 12.7279Z" stroke="#363538" stroke-width="1.5"/>
</svg>
